<svg version="1.1" id="Layer_1" xmlns="http://www.w3.org/2000/svg" xmlns:xlink="http://www.w3.org/1999/xlink" x="0px" y="0px"
	 width="100%" viewBox="0 0 120 120" enable-background="new 0 0 120 120" xml:space="preserve">
<path fill="#03334C" opacity="1.000000" stroke="none"
	d="
M1.000000,101.000000
	C1.000000,99.611000 1.000000,98.222008 1.209870,96.387070
	C1.419740,95.941132 1.839114,96.002556 2.074274,95.657578
	C2.536711,94.024620 2.959368,92.737045 2.962081,91.448586
	C3.005677,70.744499 3.013696,50.040260 2.959181,29.336237
	C2.955399,27.899740 2.396155,26.464706 1.943105,24.827785
	C1.527326,24.417719 1.263662,24.208860 1.000000,24.000000
	C1.000000,22.611002 1.000000,21.222006 1.348263,19.377808
	C2.704924,17.268591 3.914890,15.703029 4.686370,13.945040
	C7.808798,6.829885 13.612597,3.829821 21.229820,3.060440
	C21.725273,3.129765 21.922722,3.162569 22.479090,3.370698
	C23.817638,3.692371 24.797113,3.965295 25.776924,3.966505
	C48.700077,3.994823 71.623299,4.008792 94.546387,3.962531
	C95.994522,3.959608 97.441620,3.445212 99.182388,3.122022
	C99.672028,3.051315 99.868500,3.027352 100.457977,3.017822
	C110.895020,4.566891 117.017181,10.482076 119.765472,20.267338
	C120.110886,20.986452 120.555443,21.493223 121.000000,21.999998
	C121.000000,22.000000 121.000000,22.500000 120.816673,22.920864
	C120.394341,23.572443 120.155327,23.803158 119.719482,24.392609
	C119.353935,25.723698 119.039337,26.695841 119.037949,27.668430
	C119.006470,49.712696 118.991226,71.757057 119.047279,93.801208
	C119.050926,95.234390 119.651947,96.666054 120.170525,98.230148
	C120.715538,98.437164 120.926880,98.649872 121.000000,99.000000
	C121.000000,100.389000 121.000000,101.777992 120.650772,103.624504
	C119.338905,105.739624 118.407181,107.416115 117.408081,109.051437
	C113.897537,114.797554 109.085487,118.557976 101.806999,118.927078
	C101.299538,118.841736 101.096886,118.805626 100.791901,118.724678
	C100.459801,118.634811 100.255005,118.691772 99.605057,118.909607
	C76.063171,118.940880 52.991413,118.913277 29.612049,118.709656
	C27.246117,118.620468 25.187790,118.707275 22.832241,118.841049
	C22.335966,118.912941 22.136915,118.937866 21.538166,118.974342
	C11.945510,118.024406 6.356968,112.692688 3.182398,104.322464
	C2.723701,103.113045 1.740487,102.102547 1.000000,101.000000
M41.854626,50.466713
	C41.854626,50.466713 41.720413,50.883839 41.065041,51.020710
	C34.918095,56.264034 33.283882,63.809071 30.554220,71.579224
	C34.687901,71.676666 38.821579,71.774109 43.840832,72.026703
	C46.233650,71.976593 48.626472,71.926476 51.859653,72.008331
	C53.557625,71.964302 55.255600,71.920280 57.919605,72.035736
	C58.568947,72.095871 59.218288,72.156006 60.180897,72.242699
	C60.180897,72.242699 60.652401,72.244896 60.652401,72.244896
	C60.652401,72.244896 61.122967,72.219933 62.092457,72.090439
	C62.739750,72.021690 63.387039,71.952942 64.938560,72.021011
	C67.829735,72.024948 70.732750,72.174500 73.604630,71.941063
	C74.429550,71.874008 75.164597,70.701309 76.279396,69.293762
	C76.823746,62.902733 77.368103,56.511703 77.243904,49.656906
	C67.567978,49.437969 57.892735,49.151020 48.215588,49.054527
	C46.151897,49.033951 44.081303,49.705704 41.854626,50.466713
M34.344746,51.473438
	C36.626377,46.347870 39.358559,41.370392 41.101437,36.067745
	C45.546085,22.545048 59.834938,16.405092 72.746178,22.765902
	C78.125198,25.415913 81.116348,29.774860 81.927414,35.560181
	C82.503586,39.670052 82.625031,43.843678 82.714203,48.866390
	C81.111267,59.980511 79.895340,71.169189 77.773636,82.183380
	C76.280128,89.936462 79.422424,95.405647 83.753059,100.908379
	C108.951172,85.295807 113.989044,55.651161 95.711830,32.340904
	C84.668480,18.658350 70.723442,10.982277 53.032791,15.340958
	C35.485149,19.664406 24.458395,31.833561 18.410585,49.539001
	C15.222217,61.272999 15.725967,72.672562 21.094524,83.499718
	C25.374496,72.957382 29.629782,62.475857 34.344746,51.473438
M55.499195,75.374458
	C48.854786,75.364250 42.177959,75.753471 35.576221,75.217575
	C30.285711,74.788132 28.182705,76.709045 26.523590,81.649124
	C24.808117,86.757042 24.818478,90.645119 29.360853,93.746254
	C34.229404,97.070091 39.123856,100.409767 44.293922,103.213432
	C46.572372,104.449020 49.808243,105.345451 52.182831,104.735382
	C63.676979,101.782372 73.766609,87.929649 73.881989,75.376816
	C68.089302,75.376816 62.293911,75.376816 55.499195,75.374458
M64.581764,29.856829
	C63.633636,30.967379 62.685509,32.077930 61.691418,33.242317
	C57.491375,27.616402 54.268574,26.484617 50.793167,29.120848
	C46.795795,32.153011 45.773518,39.241806 48.779583,43.083698
	C52.015690,47.219597 56.261852,46.795055 61.995205,41.703697
	C63.087475,42.676060 64.074318,43.844612 65.312813,44.601273
	C68.669579,46.652084 71.984955,46.649818 74.769608,43.565380
	C76.937225,41.164402 76.912155,34.190063 74.820488,31.256365
	C72.217209,27.605089 68.880653,27.436340 64.581764,29.856829
M119.515877,100.522354
	C119.515877,100.522354 119.500084,100.482704 119.515877,100.522354
z"/>
<path fill="#3D5F76" opacity="1.000000" stroke="none"
	d="
M100.894234,118.769508
	C101.096886,118.805626 101.299538,118.841736 101.718094,119.277573
	C101.956001,120.118210 101.978004,120.559105 102.000000,121.000000
	C75.645775,121.000000 49.291542,121.000000 22.640545,120.679222
	C22.208473,119.893227 22.073168,119.428001 21.937862,118.962784
	C22.136915,118.937866 22.335966,118.912941 23.251354,118.898239
	C25.951677,118.900871 27.935667,118.893265 29.919655,118.885666
	C52.991413,118.913277 76.063171,118.940880 99.810623,118.900864
	C100.486305,118.833229 100.894234,118.769508 100.894234,118.769508
z"/>
<path fill="#496476" opacity="1.000000" stroke="none"
	d="
M100.064957,3.003389
	C99.868500,3.027352 99.672028,3.051315 98.724197,3.085742
	C72.688614,3.129261 47.404396,3.162317 22.120173,3.195373
	C21.922722,3.162569 21.725273,3.129765 21.326614,2.704795
	C21.184475,2.159810 21.313370,1.994195 21.288197,1.856812
	C21.234444,1.563455 21.100872,1.284723 21.000000,1.000000
	C47.020893,1.000000 73.041786,1.000000 99.338829,1.309967
	C99.764969,2.081086 99.914963,2.542238 100.064957,3.003389
z"/>
<path fill="#000000" opacity="1.000000" stroke="none"
	d="
M21.538166,118.974342
	C22.073168,119.428001 22.208473,119.893227 22.171888,120.679222
	C15.075719,121.000000 8.151438,121.000000 1.000000,121.000000
	C1.000000,114.647820 1.000000,108.292953 1.000000,101.469040
	C1.740487,102.102547 2.723701,103.113045 3.182398,104.322464
	C6.356968,112.692688 11.945510,118.024406 21.538166,118.974342
z"/>
<path fill="#000000" opacity="1.000000" stroke="none"
	d="
M100.457977,3.017823
	C99.914963,2.542238 99.764969,2.081086 99.807487,1.309967
	C106.922249,1.000000 113.844490,1.000000 121.000000,1.000000
	C121.000000,7.018423 121.000000,13.039836 120.717636,19.575127
	C120.245049,20.077667 120.054825,20.066330 119.864609,20.054993
	C117.017181,10.482076 110.895020,4.566891 100.457977,3.017823
z"/>
<path fill="#000000" opacity="1.000000" stroke="none"
	d="
M20.530956,1.000000
	C21.100872,1.284723 21.234444,1.563455 21.288197,1.856812
	C21.313370,1.994195 21.184475,2.159810 21.028610,2.668274
	C13.612597,3.829821 7.808798,6.829885 4.686370,13.945040
	C3.914890,15.703029 2.704924,17.268591 1.348263,18.961304
	C1.000000,13.070094 1.000000,7.140188 1.000000,1.000000
	C7.352870,1.000000 13.707392,1.000000 20.530956,1.000000
z"/>
<path fill="#000000" opacity="1.000000" stroke="none"
	d="
M102.469376,121.000000
	C101.978004,120.559105 101.956001,120.118210 102.022911,119.326820
	C109.085487,118.557976 113.897537,114.797554 117.408081,109.051437
	C118.407181,107.416115 119.338905,105.739624 120.650772,104.041008
	C121.000000,109.596634 121.000000,115.193260 121.000000,121.000000
	C114.980728,121.000000 108.959740,121.000000 102.469376,121.000000
z"/>
<path fill="#597F93" opacity="1.000000" stroke="none"
	d="
M119.916313,24.033871
	C120.155327,23.803158 120.394341,23.572443 120.816673,23.170864
	C121.000000,48.020893 121.000000,73.041786 121.000000,98.531342
	C120.926880,98.649872 120.715538,98.437164 120.177292,97.748940
	C119.964516,72.768631 119.940414,48.401249 119.916313,24.033871
z"/>
<path fill="#5D8096" opacity="1.000000" stroke="none"
	d="
M1.839114,96.002556
	C1.839114,96.002556 1.419740,95.941132 1.209870,95.970566
	C1.000000,72.312439 1.000000,48.624878 1.000000,24.468658
	C1.263662,24.208860 1.527326,24.417719 1.908804,25.294067
	C1.964117,49.308556 1.901616,72.655556 1.839114,96.002556
z"/>
<path fill="#06273B" opacity="1.000000" stroke="none"
	d="
M119.765472,20.267338
	C120.054825,20.066330 120.245049,20.077667 120.717636,20.044502
	C121.000000,20.444445 121.000000,20.888889 121.000000,21.666664
	C120.555443,21.493223 120.110886,20.986452 119.765472,20.267338
z"/>
<path fill="#DCC385" opacity="1.000000" stroke="none"
	d="
M95.790863,32.997997
	C113.989044,55.651161 108.951172,85.295807 83.753059,100.908379
	C79.422424,95.405647 76.280128,89.936462 77.773636,82.183380
	C79.895340,71.169189 81.111267,59.980511 83.249611,48.429897
	C87.283211,48.481258 88.982399,46.933128 89.468353,43.448868
	C89.787132,41.163193 90.309975,38.742802 91.438759,36.784740
	C92.346764,35.209641 94.300903,34.237614 95.790863,32.997997
z"/>
<path fill="#D6C085" opacity="1.000000" stroke="none"
	d="
M55.998856,75.375641
	C62.293911,75.376816 68.089302,75.376816 73.881989,75.376816
	C73.766609,87.929649 63.676979,101.782372 52.182831,104.735382
	C49.808243,105.345451 46.572372,104.449020 44.293922,103.213432
	C39.123856,100.409767 34.229404,97.070091 29.360853,93.746254
	C24.818478,90.645119 24.808117,86.757042 26.523590,81.649124
	C28.182705,76.709045 30.285711,74.788132 35.576221,75.217575
	C42.177959,75.753471 48.854786,75.364250 55.998856,75.375641
M39.730972,94.758797
	C42.101994,94.637566 44.473015,94.516327 46.771614,94.398796
	C46.771614,91.801834 46.771614,89.862892 46.771614,87.903343
	C45.113251,87.726151 43.678478,87.572845 42.368980,87.432930
	C42.572453,84.580452 42.761452,81.930832 42.951626,79.264740
	C36.462563,79.001625 34.912354,80.925873 36.390938,86.106224
	C36.871132,87.788635 36.622688,89.672379 37.047203,91.379570
	C37.343529,92.571228 38.217926,93.619125 39.730972,94.758797
M54.826458,87.279510
	C54.959492,88.144707 55.092529,89.009903 55.225563,89.875107
	C55.600044,89.938110 55.974529,90.001122 56.349010,90.064125
	C57.879444,86.566650 59.409878,83.069168 61.405567,78.508438
	C55.541096,79.623009 54.977699,82.885971 54.826458,87.279510
z"/>
<path fill="#DDC68A" opacity="1.000000" stroke="none"
	d="
M95.751343,32.669449
	C94.300903,34.237614 92.346764,35.209641 91.438759,36.784740
	C90.309975,38.742802 89.787132,41.163193 89.468353,43.448868
	C88.982399,46.933128 87.283211,48.481258 83.367226,47.991127
	C82.625031,43.843678 82.503586,39.670052 81.927414,35.560181
	C81.116348,29.774860 78.125198,25.415913 72.746178,22.765902
	C59.834938,16.405092 45.546085,22.545048 41.101437,36.067745
	C39.358559,41.370392 36.626377,46.347870 33.765472,51.635262
	C31.363821,51.252548 29.571550,50.545635 27.712130,50.200943
	C24.809681,49.662895 21.861719,49.370354 18.933043,48.973797
	C24.458395,31.833561 35.485149,19.664406 53.032791,15.340958
	C70.723442,10.982277 84.668480,18.658350 95.751343,32.669449
z"/>
<path fill="#DAC387" opacity="1.000000" stroke="none"
	d="
M59.867630,72.216141
	C59.218288,72.156006 58.568947,72.095871 57.170509,71.781525
	C55.271320,71.002861 54.121220,70.478409 53.131638,69.645447
	C53.702770,68.676018 54.617775,67.810379 54.445541,67.386009
	C52.827366,63.399075 51.210583,59.388992 49.209278,55.587830
	C47.800247,52.911598 45.895771,53.102882 44.657219,55.905720
	C42.802509,60.102936 41.090927,64.363403 38.790783,69.857346
	C40.870277,68.759026 41.834507,68.127144 42.885956,67.721115
	C44.803062,66.980804 46.787994,65.881233 48.711514,65.944145
	C49.531368,65.970955 50.267952,68.543823 51.035248,70.279099
	C51.025173,71.024460 51.022232,71.450417 51.019291,71.876366
	C48.626472,71.926476 46.233650,71.976593 43.040359,71.762115
	C38.457027,71.320793 34.674168,71.144051 30.891306,70.967308
	C33.283882,63.809071 34.918095,56.264034 41.877266,50.978931
	C48.844948,50.958725 55.002739,51.093838 61.155151,50.967297
	C66.434654,50.858707 71.707993,50.450924 77.213783,50.121445
	C77.443504,50.067444 77.912460,50.120674 77.912460,50.120674
	C77.368103,56.511703 76.823746,62.902733 75.734924,69.810150
	C71.471748,70.845757 67.753036,71.364975 64.034332,71.884193
	C63.387039,71.952942 62.739750,72.021690 61.102371,71.902824
	C61.436802,69.284981 62.761314,66.854744 64.687546,63.320473
	C66.114227,65.394997 67.377556,67.231995 69.216103,69.905396
	C69.573715,64.086533 69.845917,59.657349 70.124191,55.129410
	C66.793816,55.129410 62.800907,55.129410 59.867630,55.129410
	C59.867630,61.055977 59.867630,66.636055 59.867630,72.216141
z"/>
<path fill="#D9C388" opacity="1.000000" stroke="none"
	d="
M64.872162,29.621349
	C68.880653,27.436340 72.217209,27.605089 74.820488,31.256365
	C76.912155,34.190063 76.937225,41.164402 74.769608,43.565380
	C71.984955,46.649818 68.669579,46.652084 65.312813,44.601273
	C64.074318,43.844612 63.087475,42.676060 61.995205,41.703697
	C56.261852,46.795055 52.015690,47.219597 48.779583,43.083698
	C45.773518,39.241806 46.795795,32.153011 50.793167,29.120848
	C54.268574,26.484617 57.491375,27.616402 61.691418,33.242317
	C62.685509,32.077930 63.633636,30.967379 64.872162,29.621349
M52.059063,37.422287
	C53.076759,38.220959 54.019878,39.186546 55.165684,39.698471
	C55.444843,39.823196 57.009056,38.350075 56.912941,37.797737
	C56.619354,36.110592 55.804665,34.514122 54.652527,31.441902
	C53.277828,34.197548 52.663746,35.428513 52.059063,37.422287
M67.142204,38.932850
	C68.632843,38.818531 70.123482,38.704212 71.614120,38.589893
	C71.264977,36.818367 70.915833,35.046841 70.566689,33.275311
	C69.992943,33.265621 69.419197,33.255932 68.845444,33.246239
	C68.167496,34.938309 67.489548,36.630379 67.142204,38.932850
z"/>
<path fill="#DBC286" opacity="1.000000" stroke="none"
	d="
M18.671814,49.256401
	C21.861719,49.370354 24.809681,49.662895 27.712130,50.200943
	C29.571550,50.545635 31.363821,51.252548 33.535629,51.895706
	C29.629782,62.475857 25.374496,72.957382 21.094524,83.499718
	C15.725967,72.672562 15.222217,61.272999 18.671814,49.256401
z"/>
<path fill="#15344B" opacity="1.000000" stroke="none"
	d="
M60.024261,72.229416
	C59.867630,66.636055 59.867630,61.055977 59.867630,55.129410
	C62.800907,55.129410 66.793816,55.129410 70.124191,55.129410
	C69.845917,59.657349 69.573715,64.086533 69.216103,69.905396
	C67.377556,67.231995 66.114227,65.394997 64.687546,63.320473
	C62.761314,66.854744 61.436802,69.284981 60.617630,71.967575
	C61.122967,72.219933 60.652401,72.244896 60.652401,72.244896
	C60.652401,72.244896 60.180897,72.242699 60.024261,72.229416
z"/>
<path fill="#062439" opacity="1.000000" stroke="none"
	d="
M22.479090,3.370698
	C47.404396,3.162317 72.688614,3.129261 98.431023,3.132485
	C97.441620,3.445212 95.994522,3.959608 94.546387,3.962531
	C71.623299,4.008792 48.700077,3.994823 25.776924,3.966505
	C24.797113,3.965295 23.817638,3.692371 22.479090,3.370698
z"/>
<path fill="#06273B" opacity="1.000000" stroke="none"
	d="
M119.719482,24.392609
	C119.940414,48.401249 119.964516,72.768631 119.981857,97.617218
	C119.651947,96.666054 119.050926,95.234390 119.047279,93.801208
	C118.991226,71.757057 119.006470,49.712696 119.037949,27.668430
	C119.039337,26.695841 119.353935,25.723698 119.719482,24.392609
z"/>
<path fill="#022136" opacity="1.000000" stroke="none"
	d="
M2.074274,95.657578
	C1.901616,72.655556 1.964117,49.308556 2.060919,25.495275
	C2.396155,26.464706 2.955399,27.899740 2.959181,29.336237
	C3.013696,50.040260 3.005677,70.744499 2.962081,91.448586
	C2.959368,92.737045 2.536711,94.024620 2.074274,95.657578
z"/>
<path fill="#142D47" opacity="1.000000" stroke="none"
	d="
M77.578186,49.888790
	C77.912460,50.120674 77.443504,50.067444 76.750092,50.050659
	C64.709084,50.042084 53.361488,50.050293 42.013889,50.058502
	C44.081303,49.705704 46.151897,49.033951 48.215588,49.054527
	C57.892735,49.151020 67.567978,49.437969 77.578186,49.888790
z"/>
<path fill="#E8D696" opacity="1.000000" stroke="none"
	d="
M41.934258,50.262608
	C53.361488,50.050293 64.709084,50.042084 76.520370,50.104664
	C71.707993,50.450924 66.434654,50.858707 61.155151,50.967297
	C55.002739,51.093838 48.844948,50.958725 42.204952,50.910496
	C41.720413,50.883839 41.854626,50.466713 41.934258,50.262608
z"/>
<path fill="#E1D190" opacity="1.000000" stroke="none"
	d="
M64.486450,71.952606
	C67.753036,71.364975 71.471748,70.845757 75.565659,70.181046
	C75.164597,70.701309 74.429550,71.874008 73.604630,71.941063
	C70.732750,72.174500 67.829735,72.024948 64.486450,71.952606
z"/>
<path fill="#E1D190" opacity="1.000000" stroke="none"
	d="
M30.722763,71.273270
	C34.674168,71.144051 38.457027,71.320793 42.597572,71.684540
	C38.821579,71.774109 34.687901,71.676666 30.722763,71.273270
z"/>
<path fill="#E1D190" opacity="1.000000" stroke="none"
	d="
M51.439472,71.942352
	C51.022232,71.450417 51.025173,71.024460 51.355400,70.327057
	C52.112160,70.021721 52.541641,69.987831 52.971123,69.953949
	C54.121220,70.478409 55.271320,71.002861 56.687492,71.701790
	C55.255600,71.920280 53.557625,71.964302 51.439472,71.942352
z"/>
<path fill="#022D45" opacity="1.000000" stroke="none"
	d="
M29.612049,118.709656
	C27.935667,118.893265 25.951677,118.900871 23.548576,118.851273
	C25.187790,118.707275 27.246117,118.620468 29.612049,118.709656
z"/>
<path fill="#06273B" opacity="1.000000" stroke="none"
	d="
M119.507980,100.502533
	C119.500084,100.482704 119.515877,100.522354 119.507980,100.502533
z"/>
<path fill="#022D45" opacity="1.000000" stroke="none"
	d="
M100.791901,118.724678
	C100.894234,118.769508 100.486305,118.833229 100.280746,118.841980
	C100.255005,118.691772 100.459801,118.634811 100.791901,118.724678
z"/>
<path fill="#17384D" opacity="1.000000" stroke="none"
	d="
M39.282543,94.745018
	C38.217926,93.619125 37.343529,92.571228 37.047203,91.379570
	C36.622688,89.672379 36.871132,87.788635 36.390938,86.106224
	C34.912354,80.925873 36.462563,79.001625 42.951626,79.264740
	C42.761452,81.930832 42.572453,84.580452 42.368980,87.432930
	C43.678478,87.572845 45.113251,87.726151 46.771614,87.903343
	C46.771614,89.862892 46.771614,91.801834 46.771614,94.398796
	C44.473015,94.516327 42.101994,94.637566 39.282543,94.745018
z"/>
<path fill="#15374D" opacity="1.000000" stroke="none"
	d="
M54.825516,86.861679
	C54.977699,82.885971 55.541096,79.623009 61.405567,78.508438
	C59.409878,83.069168 57.879444,86.566650 56.349010,90.064125
	C55.974529,90.001122 55.600044,89.938110 55.225563,89.875107
	C55.092529,89.009903 54.959492,88.144707 54.825516,86.861679
z"/>
<path fill="#1E3B4E" opacity="1.000000" stroke="none"
	d="
M53.131638,69.645447
	C52.541641,69.987831 52.112160,70.021721 51.362526,70.007645
	C50.267952,68.543823 49.531368,65.970955 48.711514,65.944145
	C46.787994,65.881233 44.803062,66.980804 42.885956,67.721115
	C41.834507,68.127144 40.870277,68.759026 38.790783,69.857346
	C41.090927,64.363403 42.802509,60.102936 44.657219,55.905720
	C45.895771,53.102882 47.800247,52.911598 49.209278,55.587830
	C51.210583,59.388992 52.827366,63.399075 54.445541,67.386009
	C54.617775,67.810379 53.702770,68.676018 53.131638,69.645447
z"/>
<path fill="#0F334A" opacity="1.000000" stroke="none"
	d="
M52.054359,37.040878
	C52.663746,35.428513 53.277828,34.197548 54.652527,31.441902
	C55.804665,34.514122 56.619354,36.110592 56.912941,37.797737
	C57.009056,38.350075 55.444843,39.823196 55.165684,39.698471
	C54.019878,39.186546 53.076759,38.220959 52.054359,37.040878
z"/>
<path fill="#10334A" opacity="1.000000" stroke="none"
	d="
M66.976898,38.627647
	C67.489548,36.630379 68.167496,34.938309 68.845444,33.246239
	C69.419197,33.255932 69.992943,33.265621 70.566689,33.275311
	C70.915833,35.046841 71.264977,36.818367 71.614120,38.589890
	C70.123482,38.704212 68.632843,38.818531 66.976898,38.627647
z"/>
</svg>
